<svg version="1.0" xmlns="http://www.w3.org/2000/svg" width="124.000000pt" height="194.000000pt" viewBox="0 0 124.000000 194.000000" preserveAspectRatio="xMidYMid meet" style="width: 148.745px; height: auto;"> <g transform="translate(0.000000,194.000000) scale(0.100000,-0.100000)" fill="#ebe5c0" stroke="#eb5638">       <path d="M516 1885 c-14 -13 -26 -34 -25 -47 1 -19 2 -17 10 8 6 21 20 37 41 48 18 8 26 16 17 16 -9 0 -28 -11 -43 -25z"></path> <path d="M635 1890 c-3 -5 -1 -10 4 -10 6 0 11 5 11 10 0 6 -2 10 -4 10 -3 0 -8 -4 -11 -10z" class=""></path>  <path d="M675 1870 c-3 -5 -1 -10 4 -10 6 0 11 5 11 10 0 6 -2 10 -4 10 -3 0 -8 -4 -11 -10z"></path> <path d="M540 1860 c-9 -6 -17 -34 -21 -82 -27 -299 -98 -561 -198 -733 -75 -128 -75 -125 25 -164 57 -22 69 -31 72 -51 1 -14 5 -167 8 -340 3 -173 7 -320 8 -326 2 -5 41 -32 87 -58 46 -27 89 -54 95 -61 29 -29 73 -38 117 -25 23 7 48 14 56 16 11 3 12 44 5 232 -14 368 -12 430 16 479 16 30 34 46 57 54 51 17 80 5 105 -44 22 -40 23 -54 26 -334 4 -322 1 -308 67 -276 l35 17 -5 384 c-3 211 -2 388 1 393 3 6 10 6 17 1 7 -5 33 -12 59 -15 42 -6 49 -4 59 14 9 18 7 26 -10 48 -72 91 -161 248 -161 284 0 10 -4 27 -10 37 -14 27 -50 260 -50 328 0 74 -15 95 -87 116 -80 25 -142 46 -180 62 -17 8 -35 14 -41 14 -5 0 -29 9 -53 20 -48 22 -76 25 -99 10z m90 -44 c0 -8 5 -18 12 -22 7 -5 8 -3 3 6 -5 9 -2 10 11 6 11 -3 50 -15 87 -26 37 -12 65 -25 63 -29 -3 -4 6 -6 21 -3 18 3 24 1 19 -7 -5 -7 2 -11 20 -11 21 0 24 -3 15 -14 -6 -7 -14 -44 -17 -82 -3 -37 -9 -75 -14 -84 -4 -8 -13 -45 -20 -80 -6 -36 -13 -72 -17 -80 -3 -8 -8 -31 -10 -50 -2 -19 -7 -37 -11 -40 -4 -3 -7 -15 -6 -28 1 -12 -3 -25 -8 -28 -5 -3 -6 -15 -2 -26 4 -14 2 -18 -5 -14 -7 5 -11 -4 -12 -23 -2 -38 -3 -43 -10 -56 -10 -16 -22 -69 -20 -82 1 -7 -3 -13 -9 -13 -6 0 -8 -4 -5 -10 3 -5 1 -10 -6 -10 -6 0 -9 8 -6 19 4 16 -2 21 -35 26 -32 6 -39 11 -35 26 13 47 -60 76 -84 33 -9 -18 -15 -21 -21 -12 -6 10 -8 10 -8 0 0 -7 -4 -10 -10 -7 -5 3 -10 19 -10 35 0 38 -26 53 -60 35 -21 -11 -24 -20 -25 -71 -1 -32 0 -53 2 -47 9 25 42 -21 41 -56 -1 -21 5 -39 15 -46 9 -7 14 -15 10 -18 -3 -4 -1 -7 6 -7 7 0 9 -5 5 -12 -4 -7 -3 -8 4 -4 6 4 21 2 34 -5 17 -9 28 -8 55 6 33 18 45 45 21 45 -26 1 24 21 52 22 18 1 30 6 30 15 0 7 4 13 9 13 12 0 2 -40 -14 -60 -22 -26 -45 -91 -43 -121 1 -15 6 -25 10 -23 4 3 15 1 24 -4 14 -8 14 -10 0 -25 -9 -8 -21 -17 -28 -20 -9 -3 -4 -12 14 -26 16 -13 25 -28 21 -36 -6 -16 12 -21 22 -5 3 5 12 7 20 3 10 -3 15 1 15 13 0 13 3 15 11 7 7 -7 1 -19 -21 -42 -35 -34 -45 -39 -36 -15 3 8 2 13 -3 9 -5 -3 -11 -2 -14 2 -5 10 1 -10 9 -34 5 -14 4 -15 -5 -7 -6 6 -13 26 -16 44 -2 18 -8 36 -13 39 -5 3 -12 15 -16 26 -6 14 -10 16 -13 7 -4 -10 -9 -8 -20 7 -12 18 -85 61 -103 61 -3 0 -14 -13 -23 -30 -17 -29 -17 -30 0 -24 14 5 15 4 4 -4 -12 -9 -11 -17 8 -54 12 -23 39 -70 61 -103 22 -33 44 -69 49 -80 5 -11 21 -38 37 -60 15 -22 31 -56 35 -75 4 -19 11 -45 14 -58 6 -18 4 -21 -9 -16 -9 3 -16 14 -16 24 0 10 -7 23 -15 30 -8 7 -15 16 -15 21 0 7 -48 83 -133 207 -34 50 -57 183 -36 208 9 11 8 14 -5 14 -16 0 -18 23 -3 47 6 9 3 11 -7 7 -10 -4 -17 2 -21 19 -5 18 -12 24 -26 22 -10 -2 -19 0 -19 6 0 5 -6 9 -13 9 -8 0 -28 7 -46 16 l-31 16 20 25 c11 14 20 31 20 37 1 6 12 25 26 41 15 17 23 24 19 16 -6 -10 -4 -12 4 -7 7 5 10 14 7 22 -9 23 31 104 51 105 16 0 16 1 -1 8 -14 5 -16 10 -8 15 7 4 12 18 12 32 0 14 4 22 10 19 6 -4 10 5 10 20 0 42 21 115 34 115 8 0 7 3 -1 8 -8 5 -9 13 -3 22 6 8 10 10 10 4 0 -18 48 -64 66 -64 10 0 14 -5 10 -16 -3 -8 3 -25 14 -37 11 -12 18 -27 16 -33 -3 -7 5 -12 17 -12 12 0 33 -3 47 -7 34 -9 74 22 64 48 -7 20 -58 50 -68 40 -11 -12 -6 12 7 32 18 26 39 87 28 80 -5 -3 -11 2 -15 10 -7 20 -45 19 -53 -1 -3 -8 -12 -13 -19 -10 -8 3 -14 1 -14 -4 0 -6 -5 -10 -11 -10 -5 0 -7 5 -4 10 3 6 1 10 -5 10 -6 0 -9 4 -6 9 6 10 -19 24 -44 26 -9 0 -14 8 -12 20 1 11 10 67 18 125 9 58 16 117 15 132 0 15 5 30 10 34 8 4 7 9 -2 15 -9 6 1 9 29 9 30 0 42 -4 42 -14z m334 -112 c3 -9 6 -37 6 -64 0 -56 31 -246 54 -335 18 -67 85 -215 98 -215 4 0 8 -5 8 -11 0 -7 21 -36 46 -65 50 -59 52 -94 2 -47 -59 55 -178 260 -178 305 0 8 -9 48 -20 90 -11 42 -24 127 -30 189 -5 63 -10 119 -11 124 -1 6 -7 -24 -15 -65 -7 -41 -20 -104 -29 -140 -8 -36 -20 -92 -25 -125 -6 -33 -14 -69 -19 -80 -5 -11 -22 -69 -36 -130 -15 -60 -31 -114 -34 -120 -4 -5 -13 -30 -20 -54 -7 -24 -23 -60 -35 -80 -12 -20 -25 -44 -29 -53 -3 -10 -11 -18 -16 -18 -23 0 -21 23 6 68 28 45 62 139 97 267 9 33 23 83 31 110 8 28 17 68 20 90 4 22 20 95 36 162 16 67 29 138 29 158 0 28 5 38 23 45 31 12 34 12 41 -6z m-414 -254 c0 -11 11 -27 25 -36 25 -17 27 -16 60 16 33 32 35 32 35 12 0 -12 -9 -30 -20 -39 -43 -37 -6 -110 49 -96 12 3 21 1 21 -5 0 -13 -19 -26 -42 -27 -24 -2 -80 58 -76 81 2 12 -4 19 -17 22 -11 2 -32 17 -47 34 -21 25 -25 35 -17 50 12 22 29 15 29 -12z m386 -34 c0 -13 -5 -22 -10 -19 -5 4 -6 -7 -2 -23 4 -16 7 -38 7 -48 0 -14 3 -16 12 -7 18 18 29 13 22 -10 -4 -12 -3 -31 3 -43 6 -11 21 -48 34 -81 12 -33 26 -61 31 -63 4 -2 7 -10 7 -18 0 -8 5 -14 11 -14 5 0 7 -4 4 -10 -3 -5 -1 -10 4 -10 6 0 11 -7 11 -15 0 -7 6 -18 13 -22 12 -8 50 -62 45 -64 -34 -10 -50 -3 -55 23 -4 20 -8 25 -14 17 -5 -8 -10 1 -14 24 -4 22 -11 34 -18 30 -6 -3 -7 -1 -3 6 4 6 1 23 -8 36 -9 13 -16 35 -17 47 0 21 -1 21 -8 4 -6 -17 -9 -15 -20 12 -7 17 -10 37 -5 44 4 7 4 10 -1 6 -13 -12 -45 49 -45 87 0 19 -4 35 -10 35 -5 0 -10 14 -10 30 0 17 4 30 10 30 5 0 6 7 3 17 -4 11 -3 14 5 9 7 -4 12 -2 12 3 0 6 2 11 4 11 2 0 3 -11 2 -24z m18 -52 c3 -8 2 -12 -4 -9 -6 3 -10 10 -10 16 0 14 7 11 14 -7z m-54 -100 c0 -8 34 -81 76 -161 52 -101 76 -158 79 -189 2 -24 6 -52 10 -63 8 -26 -6 -33 -30 -15 -16 12 -17 14 -2 14 13 0 15 4 8 18 -5 9 -39 81 -77 159 -38 78 -74 143 -81 143 -6 0 -17 -16 -23 -35 -6 -19 -16 -35 -21 -35 -13 0 -11 21 7 55 8 17 18 51 21 78 4 30 11 47 19 47 8 0 14 -7 14 -16z m-430 -135 c0 -41 16 -69 41 -69 28 0 59 18 59 34 0 8 7 19 15 26 13 11 15 7 15 -27 0 -46 14 -63 52 -63 18 0 28 -5 28 -15 0 -27 -65 -19 -87 11 -17 23 -21 24 -45 13 -34 -15 -40 -30 -24 -60 9 -17 20 -23 39 -22 18 1 27 -3 27 -13 0 -22 -26 -28 -59 -14 -29 12 -41 34 -41 78 0 13 -11 38 -25 56 -25 33 -30 52 -19 80 10 27 24 18 24 -15z m430 -20 c0 -5 -4 -8 -9 -5 -5 3 -11 -1 -15 -9 -3 -8 -1 -15 4 -15 6 0 10 -6 10 -14 0 -7 36 -85 80 -172 80 -159 103 -224 81 -224 -6 0 -14 8 -17 18 -14 45 -140 282 -150 282 -18 0 -153 -223 -154 -252 0 -10 -6 -18 -14 -18 -11 0 -13 9 -9 38 3 20 9 42 13 47 7 10 56 98 93 170 12 22 28 48 35 57 8 9 15 33 17 52 2 19 6 40 10 46 8 13 25 13 25 -1z m-65 -59 c3 -5 1 -10 -4 -10 -6 0 -11 5 -11 10 0 6 2 10 4 10 3 0 8 -4 11 -10z m-248 -54 c12 -12 -17 -13 -33 -1 -18 14 -18 14 5 10 13 -2 26 -6 28 -9z m298 -76 c-3 -5 0 -10 7 -10 10 0 9 -3 -2 -9 -20 -13 -34 -2 -19 15 13 16 23 19 14 4z m8 -59 c3 -13 -1 -21 -14 -24 -20 -5 -23 1 -13 27 8 22 21 20 27 -3z m-63 -51 c0 -5 -2 -10 -4 -10 -3 0 -8 5 -11 10 -3 6 -1 10 4 10 6 0 11 -4 11 -10z m-315 -40 c-3 -5 1 -10 10 -10 32 0 142 -148 149 -202 7 -51 17 -78 27 -72 20 12 21 -28 2 -46 -20 -18 -21 -18 -31 5 -9 20 -8 22 11 18 l22 -5 -22 16 c-13 10 -23 22 -23 28 0 10 -68 129 -80 138 -3 3 -17 23 -30 45 -13 22 -34 49 -46 61 -24 21 -22 34 3 34 8 0 11 -4 8 -10z m240 -152 c-3 -24 -11 -55 -17 -70 -8 -22 -7 -31 7 -44 13 -13 14 -19 4 -25 -17 -10 -29 -2 -22 16 3 8 0 15 -5 15 -14 0 -9 74 8 118 17 47 33 40 25 -10z m305 26 c0 -7 3 -20 6 -29 5 -11 -2 -9 -20 8 -31 29 -32 33 -6 33 11 0 20 -6 20 -12z m0 -127 c0 -10 -6 -17 -12 -15 -15 5 -26 41 -26 83 0 30 0 30 19 -10 10 -22 19 -48 19 -58z m-585 22 c-4 -11 -2 -19 4 -19 6 0 11 -8 11 -17 0 -14 74 -139 91 -153 3 -3 12 -17 20 -32 8 -14 30 -53 49 -85 19 -32 36 -69 38 -83 4 -38 11 -52 22 -45 5 3 10 3 11 -2 0 -4 2 -15 4 -24 1 -9 -1 -23 -6 -30 -7 -12 -9 -11 -9 1 0 12 -2 12 -8 2 -9 -13 -42 -6 -42 9 0 5 -6 9 -12 9 -44 2 -168 167 -182 244 -9 46 11 47 28 0 14 -36 118 -194 143 -214 19 -16 53 -15 53 2 0 5 -6 8 -12 5 -8 -3 -14 5 -14 18 -2 20 -55 111 -115 197 -10 15 -19 30 -19 33 0 7 -42 68 -52 75 -4 3 -10 36 -14 74 -5 53 -4 67 5 62 6 -4 9 -16 6 -27z m592 -85 c-7 -7 -37 7 -37 18 0 5 5 6 10 3 6 -3 10 0 10 7 0 8 5 6 11 -5 6 -10 9 -21 6 -23z m-307 -29 c0 -39 -34 -115 -51 -115 -6 0 -7 9 -3 23 4 12 8 31 9 42 3 28 28 85 37 85 4 0 8 -16 8 -35z m301 -55 c5 -23 8 -45 5 -47 -9 -9 -35 42 -41 82 -7 37 -6 39 10 24 9 -9 21 -35 26 -59z m-581 8 c0 -4 -7 -8 -15 -8 -8 0 -15 4 -15 8 0 5 7 9 15 9 8 0 15 -4 15 -9z m239 -113 c-27 -39 -34 -42 -43 -19 -4 10 -2 13 7 9 6 -4 4 0 -6 8 -17 14 -16 15 10 22 15 5 31 8 36 7 4 -1 7 3 7 10 0 6 3 8 6 5 4 -4 -4 -22 -17 -42z m351 41 c0 -2 3 -11 6 -20 5 -13 2 -13 -20 -3 -31 14 -34 27 -6 27 11 0 20 -2 20 -4z m-305 -75 c-4 -53 -30 -115 -44 -106 -19 11 16 155 38 155 5 0 7 -22 6 -49z m285 20 c14 -27 13 -48 -4 -54 -10 -4 -15 5 -18 34 -4 42 5 51 22 20z m-593 -33 c-3 -8 -6 -5 -6 6 -1 11 2 17 5 13 3 -3 4 -12 1 -19z m28 -18 c-3 -4 2 -13 10 -20 8 -7 15 -17 15 -22 0 -7 -5 -6 -13 1 -8 6 -16 9 -18 6 -3 -2 -10 5 -17 15 -10 17 -10 20 4 20 9 0 12 5 8 12 -4 7 -3 8 5 4 6 -4 9 -11 6 -16z m281 -132 c-17 -28 -31 -21 -32 15 -1 17 1 26 3 20 8 -23 23 -14 24 15 l1 27 7 -30 c4 -16 2 -38 -3 -47z" class="" stroke-width="1"></path> <path d="M430 890 c0 -5 5 -10 11 -10 5 0 7 5 4 10 -3 6 -8 10 -11 10 -2 0 -4 -4 -4 -10z"></path>  <path d="M828 1813 c7 -3 16 -2 19 1 4 3 -2 6 -13 5 -11 0 -14 -3 -6 -6z"></path> <path d="M873 1805 c0 -8 4 -12 9 -9 5 3 6 10 3 15 -9 13 -12 11 -12 -6z"></path>  <path d="M980 1775 c0 -5 13 -25 28 -43 24 -27 28 -29 28 -12 0 11 -6 20 -14 20 -7 0 -10 5 -6 12 4 6 3 8 -4 4 -6 -3 -15 2 -21 11 -6 10 -11 14 -11 8z"></path> <path d="M466 1723 c-6 -14 -5 -15 5 -6 7 7 10 15 7 18 -3 3 -9 -2 -12 -12z"></path>   <path d="M421 1464 c0 -11 3 -14 6 -6 3 7 2 16 -1 19 -3 4 -6 -2 -5 -13z"></path> <path d="M1051 1434 c0 -11 3 -14 6 -6 3 7 2 16 -1 19 -3 4 -6 -2 -5 -13z"></path>  <path d="M1101 1354 c0 -11 3 -14 6 -6 3 7 2 16 -1 19 -3 4 -6 -2 -5 -13z" stroke-width="1" class=""></path> <path d="M1061 1344 c0 -11 3 -14 6 -6 3 7 2 16 -1 19 -3 4 -6 -2 -5 -13z"></path> <path d="M1090 1261 c0 -6 4 -13 10 -16 6 -3 7 1 4 9 -7 18 -14 21 -14 7z"></path> <path d="M357 1227 c-3 -8 -2 -20 3 -26 5 -9 8 -4 8 13 0 29 -3 32 -11 13z"></path> <path d="M341 1173 c-1 -6 -4 -20 -7 -30 -5 -17 -5 -17 6 0 6 10 9 23 6 30 -3 9 -5 9 -5 0z"></path> <path d="M1170 1170 c0 -5 5 -10 11 -10 5 0 7 5 4 10 -3 6 -8 10 -11 10 -2 0 -4 -4 -4 -10z"></path> <path d="M1140 1162 c0 -5 7 -15 15 -22 8 -7 15 -9 15 -6 0 4 -7 14 -15 22 -8 9 -15 11 -15 6z"></path> <path d="M1175 1120 c-3 -5 -1 -10 4 -10 6 0 11 5 11 10 0 6 -2 10 -4 10 -3 0 -8 -4 -11 -10z" class=""></path> <path d="M1180 1093 c0 -6 9 -21 21 -34 l20 -24 -17 30 c-24 39 -24 40 -24 28z" class=""></path> <path d="M282 1063 c-6 -2 -10 -9 -6 -14 8 -14 21 -11 21 6 0 8 -1 15 -1 14 -1 0 -7 -3 -14 -6z"></path> <path d="M256 1032 c-3 -5 1 -9 9 -9 8 0 12 4 9 9 -3 4 -7 8 -9 8 -2 0 -6 -4 -9 -8z"></path>   <path d="M313 845 c0 -7 8 -10 19 -7 10 2 18 6 18 7 0 1 -8 5 -18 7 -11 3 -19 0 -19 -7z"></path> <path d="M873 773 c-57 -27 -74 -117 -58 -315 7 -86 10 -98 26 -98 11 0 19 -7 19 -15 0 -9 -9 -15 -25 -15 -14 0 -25 -5 -25 -10 0 -16 30 -24 43 -11 17 17 37 13 37 -7 0 -23 -19 -42 -41 -42 -18 0 -42 -23 -33 -33 3 -3 22 0 42 7 45 15 74 15 79 0 2 -7 -22 -19 -57 -30 -34 -10 -60 -24 -60 -31 0 -18 17 -16 69 7 51 23 71 25 71 6 0 -7 -27 -23 -62 -36 -73 -26 -86 -36 -71 -51 7 -7 23 -4 54 9 24 11 56 25 70 30 l26 10 -4 254 c-5 312 -6 328 -41 361 -26 25 -28 25 -59 10z m42 -36 c20 -20 25 -76 30 -291 4 -196 4 -198 -15 -178 -12 13 -17 28 -13 38 4 11 2 15 -4 11 -5 -3 -16 6 -24 21 -8 15 -21 32 -29 38 -15 12 -16 21 -19 183 -2 69 1 96 11 102 8 6 9 9 1 9 -16 0 -3 42 20 63 24 20 25 21 42 4z" class=""></path> <path d="M851 514 c0 -11 3 -14 6 -6 3 7 2 16 -1 19 -3 4 -6 -2 -5 -13z"></path>  <path d="M391 704 c0 -11 3 -14 6 -6 3 7 2 16 -1 19 -3 4 -6 -2 -5 -13z"></path>   <path d="M1086 113 c-6 -14 -5 -15 5 -6 7 7 10 15 7 18 -3 3 -9 -2 -12 -12z"></path> <path d="M420 110 c20 -13 33 -13 25 0 -3 6 -14 10 -23 10 -15 0 -15 -2 -2 -10z" stroke-width="1"></path> <path d="M970 109 c0 -5 5 -7 10 -4 6 3 10 8 10 11 0 2 -4 4 -10 4 -5 0 -10 -5 -10 -11z"></path>  <path d="M311 71 c-12 -8 -9 -11 12 -17 16 -3 31 -4 34 0 4 3 -4 6 -16 6 -12 0 -19 4 -16 10 8 12 4 12 -14 1z" stroke-width="1"></path> <path d="M517 69 c7 -7 15 -10 18 -7 3 3 -2 9 -12 12 -14 6 -15 5 -6 -5z" class=""></path> <path d="M860 69 c0 -5 5 -7 10 -4 6 3 10 8 10 11 0 2 -4 4 -10 4 -5 0 -10 -5 -10 -11z"></path>    </g> </svg>